<mxfile host="Electron" modified="2024-03-08T19:08:38.655Z" agent="Mozilla/5.0 (Windows NT 10.0; Win64; x64) AppleWebKit/537.36 (KHTML, like Gecko) draw.io/23.1.5 Chrome/120.0.6099.109 Electron/28.1.0 Safari/537.36" etag="VSFLvmB3cKeW14G03Gz3" version="23.1.5" type="device">
  <diagram name="Страница — 1" id="lQFdaUU7khQQxwv0sdkl">
    <mxGraphModel dx="792" dy="1187" grid="1" gridSize="10" guides="1" tooltips="1" connect="1" arrows="1" fold="1" page="1" pageScale="1" pageWidth="827" pageHeight="1169" math="0" shadow="0">
      <root>
        <mxCell id="0" />
        <mxCell id="1" parent="0" />
        <mxCell id="nWFao4UnuBuBExyYFJjG-1" value="SEND" style="rounded=0;whiteSpace=wrap;html=1;verticalAlign=top;fontSize=20;fillColor=none;" vertex="1" parent="1">
          <mxGeometry y="250" width="800" height="400" as="geometry" />
        </mxCell>
        <mxCell id="nWFao4UnuBuBExyYFJjG-2" style="edgeStyle=orthogonalEdgeStyle;rounded=0;orthogonalLoop=1;jettySize=auto;html=1;exitX=1;exitY=0.5;exitDx=0;exitDy=0;entryX=0;entryY=0.5;entryDx=0;entryDy=0;startArrow=classic;startFill=1;" edge="1" parent="1" source="nWFao4UnuBuBExyYFJjG-3" target="nWFao4UnuBuBExyYFJjG-5">
          <mxGeometry relative="1" as="geometry" />
        </mxCell>
        <mxCell id="nWFao4UnuBuBExyYFJjG-3" value="User" style="rounded=0;whiteSpace=wrap;html=1;" vertex="1" parent="1">
          <mxGeometry x="40" y="410" width="120" height="80" as="geometry" />
        </mxCell>
        <mxCell id="nWFao4UnuBuBExyYFJjG-4" style="edgeStyle=orthogonalEdgeStyle;rounded=0;orthogonalLoop=1;jettySize=auto;html=1;exitX=1;exitY=0.5;exitDx=0;exitDy=0;entryX=0;entryY=0.5;entryDx=0;entryDy=0;startArrow=classic;startFill=1;" edge="1" parent="1" source="nWFao4UnuBuBExyYFJjG-5" target="nWFao4UnuBuBExyYFJjG-7">
          <mxGeometry relative="1" as="geometry" />
        </mxCell>
        <mxCell id="nWFao4UnuBuBExyYFJjG-5" value="SGW" style="rounded=0;whiteSpace=wrap;html=1;" vertex="1" parent="1">
          <mxGeometry x="240" y="410" width="120" height="80" as="geometry" />
        </mxCell>
        <mxCell id="nWFao4UnuBuBExyYFJjG-6" style="edgeStyle=orthogonalEdgeStyle;rounded=0;orthogonalLoop=1;jettySize=auto;html=1;exitX=1;exitY=0.5;exitDx=0;exitDy=0;entryX=0;entryY=0.5;entryDx=0;entryDy=0;startArrow=classic;startFill=1;" edge="1" parent="1" source="nWFao4UnuBuBExyYFJjG-7" target="nWFao4UnuBuBExyYFJjG-8">
          <mxGeometry relative="1" as="geometry" />
        </mxCell>
        <mxCell id="nWFao4UnuBuBExyYFJjG-7" value="PGW" style="rounded=0;whiteSpace=wrap;html=1;" vertex="1" parent="1">
          <mxGeometry x="440" y="410" width="120" height="80" as="geometry" />
        </mxCell>
        <mxCell id="nWFao4UnuBuBExyYFJjG-8" value="IP" style="rounded=0;whiteSpace=wrap;html=1;" vertex="1" parent="1">
          <mxGeometry x="640" y="410" width="120" height="80" as="geometry" />
        </mxCell>
      </root>
    </mxGraphModel>
  </diagram>
</mxfile>
